<?xml version="1.0" encoding="UTF-8"?>
<svg id="Layer_2" data-name="Layer 2" xmlns="http://www.w3.org/2000/svg" viewBox="0 0 382.07 511.04">
  <defs>
    <style>
      .cls-1 {
        fill: #ec676a;
      }

      .cls-2 {
        fill: #e4252a;
      }

      .cls-3 {
        fill: #fefbfb;
      }
    </style>
  </defs>
  <g id="Layer_1-2" data-name="Layer 1">
    <g id="ffOM9X.tif">
      <g>
        <path class="cls-2" d="M237.38.04v149.71s143.63,0,143.63,0l1.06,3.39-.19,300.4c-4.53,30.37-27.24,51.47-56.73,57.51H56.85c-14.26-4.25-28.05-9.83-38.41-20.95-10.5-11.26-14.89-24.28-18.44-38.94V59.92c2.62-7.55,3.59-14.95,7.1-22.33C17.56,15.63,40.28,1.61,64.29,0l173.09.04ZM98.74,348.36h16.46c25.72,0,41.18-28.47,25.43-49.4-4.01-5.33-15.91-11.48-22.44-11.48h-42.89c-.11,0-1.5,1.39-1.5,1.5v92.32h24.94v-32.94ZM155.59,381.3h42.39c2.84,0,12.75-3.7,15.82-5.13,42.29-19.84,27.42-88.68-20.8-88.68h-35.91c-.11,0-1.5,1.39-1.5,1.5v92.32ZM316.18,287.48h-65.83v93.82h23.94v-37.93h33.91v-19.96h-33.91v-14.97h41.89v-20.96Z"/>
        <polygon class="cls-1" points="381.01 149.75 237.38 149.75 237.38 .04 381.01 149.75"/>
        <path class="cls-3" d="M155.59,381.3v-92.32c0-.11,1.39-1.5,1.5-1.5h35.91c48.22,0,63.09,68.84,20.8,88.68-3.06,1.44-12.98,5.13-15.82,5.13h-42.39ZM179.53,361.34c13.78.44,29.14-1.82,33.43-16.95,2.73-9.63,1.9-22.95-6.15-29.81-1.71-1.45-11.19-6.14-12.82-6.14h-14.46v52.9Z"/>
        <path class="cls-3" d="M98.74,348.36v32.94h-24.94v-92.32c0-.11,1.39-1.5,1.5-1.5h42.89c6.53,0,18.43,6.15,22.44,11.48,15.75,20.93.29,49.4-25.43,49.4h-16.46ZM98.74,327.4h16.46c.33,0,4.98-2.8,5.52-3.46,4.29-5.21.77-15.51-5.52-15.51h-16.46v18.96Z"/>
        <polygon class="cls-3" points="316.18 287.48 316.18 308.44 274.29 308.44 274.29 323.41 308.2 323.41 308.2 343.37 274.29 343.37 274.29 381.3 250.35 381.3 250.35 287.48 316.18 287.48"/>
        <path class="cls-2" d="M179.53,361.34v-52.9h14.46c1.63,0,11.11,4.69,12.82,6.14,8.06,6.86,8.89,20.18,6.15,29.81-4.29,15.13-19.65,17.39-33.43,16.95Z"/>
        <path class="cls-2" d="M98.74,327.4v-18.96h16.46c6.29,0,9.81,10.3,5.52,15.51-.54.66-5.2,3.46-5.52,3.46h-16.46Z"/>
      </g>
    </g>
  </g>
</svg>