<?xml version="1.0" encoding="UTF-8"?>
<svg id="Layer_1" xmlns="http://www.w3.org/2000/svg" xmlns:xlink="http://www.w3.org/1999/xlink" version="1.1" viewBox="0 0 175.2 175.6">
  <!-- Generator: Adobe Illustrator 29.5.1, SVG Export Plug-In . SVG Version: 2.1.0 Build 141)  -->
  <defs>
    <style>
      .st0 {
        fill: none;
      }

      .st1 {
        fill-rule: evenodd;
      }

      .st1, .st2 {
        fill: #fff;
      }

      .st3 {
        fill: url(#linear-gradient);
      }

      .st4 {
        fill: #b3b3b3;
      }
    </style>
    <linearGradient id="linear-gradient" x1="87.2" y1="153.4" x2="87.9" y2="31.6" gradientTransform="translate(0 177.3) scale(1 -1)" gradientUnits="userSpaceOnUse">
      <stop offset="0" stop-color="#57d163"/>
      <stop offset="1" stop-color="#23b33a"/>
    </linearGradient>
  </defs>
  <path class="st4" d="M49.5,147.3l2.6,1.5c10.9,6.5,23.5,9.9,36.3,9.9h0c39.3,0,71.3-32,71.3-71.3,0-19-7.4-36.9-20.9-50.4-13.3-13.4-31.5-20.9-50.4-20.9-39.3,0-71.3,32-71.3,71.3,0,13.4,3.8,26.6,10.9,37.9l1.7,2.7-7.2,26.3,27-7.1ZM1.9,174.7l12.2-44.4c-7.5-13-11.5-27.7-11.4-42.9C2.7,40.2,41.1,1.7,88.4,1.7c22.9,0,44.5,8.9,60.7,25.1,16.2,16.2,25.1,37.7,25.1,60.7,0,47.3-38.5,85.7-85.8,85.7h0c-14.4,0-28.5-3.6-41-10.4L1.9,174.7Z"/>
  <path class="st2" d="M1,173.8l12.2-44.4c-7.5-13-11.5-27.8-11.4-42.9C1.8,39.3,40.3.8,87.5.8c22.9,0,44.5,8.9,60.7,25.1,16.2,16.2,25.1,37.7,25.1,60.7,0,47.3-38.5,85.7-85.8,85.7h0c-14.4,0-28.5-3.6-41-10.4L1,173.8Z"/>
  <path class="st0" d="M87.6,15.3c-39.3,0-71.3,32-71.3,71.3,0,13.4,3.8,26.6,10.9,37.9l1.7,2.7-7.2,26.3,27-7.1,2.6,1.5c10.9,6.5,23.5,9.9,36.3,9.9h0c39.3,0,71.3-32,71.3-71.3,0-18.9-7.5-37.1-20.9-50.4-13.3-13.4-31.5-20.9-50.4-20.9h0Z"/>
  <path class="st3" d="M87.6,15.3c-39.3,0-71.3,32-71.3,71.3,0,13.4,3.8,26.6,10.9,37.9l1.7,2.7-7.2,26.3,27-7.1,2.6,1.5c10.9,6.5,23.5,9.9,36.3,9.9h0c39.3,0,71.3-32,71.3-71.3,0-18.9-7.5-37.1-20.9-50.4-13.3-13.4-31.5-20.9-50.4-20.9Z"/>
  <path class="st1" d="M66.1,50.7c-1.6-3.6-3.3-3.6-4.8-3.7h-4.1c-1.4,0-3.8.5-5.7,2.6s-7.5,7.3-7.5,17.9,7.7,20.7,8.7,22.2,14.8,23.8,36.6,32.3c18.1,7.1,21.8,5.7,25.7,5.4s12.7-5.2,14.5-10.2,1.8-9.3,1.3-10.2-2-1.4-4.1-2.5-12.7-6.3-14.6-7-3.4-1.1-4.8,1.1-5.5,7-6.8,8.4-2.5,1.6-4.6.5-9-3.3-17.2-10.6c-6.4-5.7-10.7-12.7-11.9-14.8s-.1-3.3.9-4.4c1-1,2.1-2.5,3.2-3.8s1.4-2.1,2.1-3.6.4-2.7-.2-3.8-4.7-11.7-6.6-15.9"/>
</svg>